<svg width="23" height="22" viewBox="0 0 23 22" fill="none" xmlns="http://www.w3.org/2000/svg">
<g clip-path="url(#clip0_5856_2784)">
<path d="M20.1429 2.35714H17.7857V0.785729C17.7857 0.351776 17.4339 0 17 0C16.566 0 16.2143 0.351776 16.2143 0.785729V2.35714H6.78569V0.785729C6.78569 0.351776 6.43392 0 6.00001 0C5.5661 0 5.21428 0.351776 5.21428 0.785729V2.35714H2.85714C1.55533 2.35714 0.5 3.41247 0.5 4.71428V19.6429C0.5 20.9447 1.55533 22 2.85714 22H20.1429C21.4447 22 22.5 20.9447 22.5 19.6429V4.71428C22.5 3.41247 21.4447 2.35714 20.1429 2.35714ZM20.9285 19.6429C20.9285 20.0768 20.5768 20.4286 20.1428 20.4286H2.85714C2.42319 20.4286 2.07141 20.0768 2.07141 19.6429V9.42857H20.9285V19.6429ZM20.9285 7.85715H2.07141V4.71428C2.07141 4.28033 2.42319 3.92855 2.85714 3.92855H5.21428V5.49997C5.21428 5.93392 5.56606 6.28569 6.00001 6.28569C6.43396 6.28569 6.78574 5.93392 6.78574 5.49997V3.92855H16.2143V5.49997C16.2143 5.93392 16.5661 6.28569 17 6.28569C17.434 6.28569 17.7858 5.93392 17.7858 5.49997V3.92855H20.1429C20.5769 3.92855 20.9286 4.28033 20.9286 4.71428V7.85715H20.9285Z" fill="#89C249"/>
<path d="M6.78683 11H5.21542C4.78146 11 4.42969 11.3518 4.42969 11.7857C4.42969 12.2197 4.78146 12.5715 5.21542 12.5715H6.78683C7.22078 12.5715 7.57256 12.2197 7.57256 11.7857C7.57256 11.3518 7.22078 11 6.78683 11Z" fill="#89C249"/>
<path d="M12.2868 11H10.7154C10.2815 11 9.92969 11.3518 9.92969 11.7857C9.92969 12.2197 10.2815 12.5715 10.7154 12.5715H12.2868C12.7208 12.5715 13.0726 12.2197 13.0726 11.7857C13.0726 11.3518 12.7208 11 12.2868 11Z" fill="#89C249"/>
<path d="M17.7868 11H16.2154C15.7815 11 15.4297 11.3518 15.4297 11.7857C15.4297 12.2197 15.7815 12.5715 16.2154 12.5715H17.7868C18.2208 12.5715 18.5726 12.2197 18.5726 11.7857C18.5725 11.3518 18.2207 11 17.7868 11Z" fill="#89C249"/>
<path d="M6.78683 14.1426H5.21542C4.78146 14.1426 4.42969 14.4944 4.42969 14.9283C4.42969 15.3623 4.78146 15.714 5.21542 15.714H6.78683C7.22078 15.714 7.57256 15.3623 7.57256 14.9283C7.57256 14.4944 7.22078 14.1426 6.78683 14.1426Z" fill="#89C249"/>
<path d="M12.2868 14.1426H10.7154C10.2815 14.1426 9.92969 14.4944 9.92969 14.9283C9.92969 15.3623 10.2815 15.714 10.7154 15.714H12.2868C12.7208 15.714 13.0726 15.3623 13.0726 14.9283C13.0726 14.4944 12.7208 14.1426 12.2868 14.1426Z" fill="#89C249"/>
<path d="M17.7868 14.1426H16.2154C15.7815 14.1426 15.4297 14.4944 15.4297 14.9283C15.4297 15.3623 15.7815 15.714 16.2154 15.714H17.7868C18.2208 15.714 18.5726 15.3623 18.5726 14.9283C18.5725 14.4944 18.2207 14.1426 17.7868 14.1426Z" fill="#89C249"/>
<path d="M6.78683 17.2861H5.21542C4.78146 17.2861 4.42969 17.6379 4.42969 18.0719C4.42969 18.5058 4.78146 18.8575 5.21542 18.8575H6.78683C7.22078 18.8575 7.57256 18.5058 7.57256 18.0718C7.57256 17.6379 7.22078 17.2861 6.78683 17.2861Z" fill="#89C249"/>
<path d="M12.2868 17.2861H10.7154C10.2815 17.2861 9.92969 17.6379 9.92969 18.0719C9.92969 18.5058 10.2815 18.8576 10.7154 18.8576H12.2868C12.7208 18.8576 13.0726 18.5058 13.0726 18.0719C13.0726 17.6379 12.7208 17.2861 12.2868 17.2861Z" fill="#89C249"/>
<path d="M17.7868 17.2861H16.2154C15.7815 17.2861 15.4297 17.6379 15.4297 18.0719C15.4297 18.5058 15.7815 18.8576 16.2154 18.8576H17.7868C18.2208 18.8576 18.5726 18.5058 18.5726 18.0719C18.5726 17.6379 18.2207 17.2861 17.7868 17.2861Z" fill="#89C249"/>
</g>
<defs>
<clipPath id="clip0_5856_2784">
<rect width="22" height="22" fill="white" transform="translate(0.5)"/>
</clipPath>
</defs>
</svg>
