<svg width="23" height="24" viewBox="0 0 23 24" fill="none" xmlns="http://www.w3.org/2000/svg">
<path d="M22.853 5.10763C22.853 4.80315 22.6691 4.52881 22.3875 4.41308L11.7821 0.0563145C11.5993 -0.0187715 11.3943 -0.0187715 11.2115 0.0563145L0.606158 4.41308C0.324539 4.52876 0.140625 4.80315 0.140625 5.10763V18.8924C0.140625 19.1968 0.324492 19.4712 0.606158 19.5869L11.2115 23.9437C11.3924 24.018 11.5956 24.0196 11.7812 23.9436C11.7903 23.9406 11.3887 24.1053 22.3875 19.5869C22.6691 19.4712 22.853 19.1968 22.853 18.8924V5.10763ZM11.4968 8.71579L7.58915 7.1105L16.034 3.42655L20.203 5.13921L11.4968 8.71579ZM1.64234 6.29098L5.01375 7.67599V11.5835C5.01375 11.9981 5.34995 12.3343 5.76461 12.3343C6.17927 12.3343 6.51547 11.9981 6.51547 11.5835V8.29291L10.746 10.0308V22.1289L1.64234 18.3891V6.29098ZM11.4968 1.56259L14.0998 2.6319L5.65489 6.31585L2.7906 5.13916L11.4968 1.56259ZM12.2477 10.0308L21.3513 6.29098V18.3891L12.2477 22.1289V10.0308Z" fill="#89C249"/>
</svg>
